<?xml version="1.0" encoding="UTF-8"?>
<svg width="3032px" height="1000px" viewBox="0 0 3032 1000" version="1.1" xmlns="http://www.w3.org/2000/svg" xmlns:xlink="http://www.w3.org/1999/xlink">
    <!-- Generator: Sketch 53.2 (72643) - https://sketchapp.com -->
    <title>Artboard Copy 3</title>
    <desc>Created with Sketch.</desc>
    <defs>
        <path d="M344.266613,0.7548189 C352.111996,-0.142157461 368.879577,-0.278202719 368.879577,0.554978408 C368.879577,0.93544396 364.76229,9.85524745 359.726631,20.3853041 C342.853675,55.6648371 334.130687,80.4734969 330.781785,102.704214 C328.767368,116.078155 327.717471,142.089701 328.693529,154.432157 C329.629591,166.268863 330.984842,174.339345 332.037046,174.339345 C332.41624,174.339345 337.421132,171.227213 343.11288,167.451765 C360.649618,155.818743 374.179826,149.214014 387.18547,145.935862 C393.492542,144.345593 404.394547,143.497808 405.414446,144.516994 C405.710571,144.813681 404.904497,149.820453 403.620008,155.661945 C394.424758,197.474725 392.710311,231.50218 398.438979,258.502936 C401.912483,274.874484 409.374057,293.631052 416.93716,305.004282 C419.160787,308.348535 427.64303,317.382094 440.487921,330.087338 C467.25452,356.56236 484.898938,374.504962 493.218889,383.710691 C510.168761,402.464952 524.949615,423.203015 533.044204,439.589167 C545.118401,464.031196 551.709292,495.243206 549.615652,518.064991 C543.530096,584.396661 508.485081,649.556191 456.409432,691.365128 C415.035039,724.582461 368.571915,743.811728 311.57752,751.305746 C296.144422,753.334896 260.197957,753.137361 244.045699,750.934504 C190.820163,743.674914 146.207627,724.646256 108.366733,693.062235 C44.4822453,639.740948 6.14909156,554.881758 0.428115647,454.116033 C-3.24152351,389.482238 16.7995827,313.535933 55.9395802,243.745485 C73.4409362,212.539623 98.5776952,176.547582 119.443336,152.818061 C134.850282,135.296661 165.130382,104.76334 182.744034,88.9882391 C234.277429,42.8335403 302.586865,5.51870878 344.266613,0.7548189 Z M271.384167,248.180652 C270.523732,250.235036 244.522899,293.789899 213.604538,344.969588 C182.686177,396.148218 157.132007,438.693352 156.815842,439.514683 C156.405252,440.582624 173.202297,451.00696 215.713717,476.066009 L275.187692,511.122852 L334.644691,476.046958 C377.359814,450.847139 393.939363,440.546638 393.52453,439.467054 C391.376095,433.880736 275.757425,244.444444 274.495949,244.444444 C273.645063,244.444444 272.244601,246.125209 271.384167,248.180652 Z M156.956949,464.727202 C159.248613,468.635931 274.696469,630.681484 275.179204,630.666667 C275.977042,630.642323 394.010447,464.246681 393.554236,463.790504 C393.123489,463.361846 282.795802,528.185571 278.193378,531.571443 L275.372298,533.648054 L218.249401,500.003137 C186.83133,481.498857 159.965818,465.612038 158.548382,464.700742 C156.198366,463.190383 156.057259,463.192499 156.956949,464.727202 Z" id="path-1"></path>
        <linearGradient x1="0%" y1="0%" x2="100%" y2="100%" id="linearGradient-3">
            <stop stop-color="#EB6B56" offset="0%"></stop>
            <stop stop-color="#FFC153" offset="100%"></stop>
        </linearGradient>
    </defs>
    <g id="Artboard-Copy-3" stroke="none" stroke-width="1" fill="none" fill-rule="evenodd">
        <path d="M1260.72513,367.153285 L1000,367.153285 L1000,300 L1397.08138,300 L1260.72513,367.153285 Z M1136.82934,632.846715 L1400.00109,632.846715 L1400.00109,700 L1000,700 L1136.82934,632.846715 Z M1530.41507,366 L1530.41507,633 L1464.23484,700 L1464.23484,300 L1530.41507,366 Z M1910.02287,339 C1936.01097,365.5 1949.00502,397 1949.00502,433.5 C1949.00502,470 1936.51074,502 1910.02287,528 C1884.03477,554 1852.54918,567 1816.06588,567 L1682.62697,567 L1682.62697,700 L1616.1574,700 L1616.1574,500 L1816.06588,500 C1834.05765,500 1849.55055,493.5 1862.54461,480.5 C1875.53866,467.5 1882.53545,452 1882.53545,433.5 C1882.53545,415.5 1876.03843,399.5 1862.54461,386.5 C1849.55055,373.5 1834.05765,367 1816.06588,367 L1682.62697,367 L1616.1574,300 L1816.06588,300 C1852.54918,300 1884.03477,313 1910.02287,339 Z M2284.71976,339 C2310.70786,365.5 2323.70191,397 2323.70191,433.5 C2323.70191,470 2311.20763,502 2284.71976,528 C2258.73165,554 2227.24607,567 2190.76277,567 L2057.32386,567 L2057.32386,700 L1990.85429,700 L1990.85429,500 L2190.76277,500 C2208.75453,500 2224.24744,493.5 2237.24149,480.5 C2250.23554,467.5 2257.23234,452 2257.23234,433.5 C2257.23234,415.5 2250.73532,399.5 2237.24149,386.5 C2224.24744,373.5 2208.75453,367 2190.76277,367 L2057.32386,367 L1990.85429,300 L2190.76277,300 C2227.24607,300 2258.73165,313 2284.71976,339 Z M2581.74977,300 C2637.18063,300 2683.6227,320 2722.57412,359 C2762.02491,398 2782,445 2782,500 C2782,555.5 2762.02491,602.5 2722.57412,641 C2683.6227,680 2637.18063,700 2581.74977,700 C2526.3189,700 2479.87683,680 2440.92541,641 C2401.97399,602 2381.99891,555.5 2381.99891,500 C2381.99891,445 2401.97399,398 2440.92541,359 C2479.37745,320 2526.3189,300 2581.74977,300 Z M2581.99945,367.153285 C2545.54142,367.153285 2514.07764,379.638878 2487.60811,406.108337 C2461.638,432.078371 2449.15238,463.542067 2449.15238,500 C2449.15238,536.457933 2461.638,568.421053 2487.60811,594.391087 C2513.57821,620.361122 2545.54142,632.846715 2581.99945,632.846715 C2618.45749,632.846715 2649.92127,620.361122 2675.89137,594.391087 C2702.3609,567.921629 2714.84653,536.457933 2714.84653,500 C2714.84653,463.542067 2701.86148,432.078371 2675.89137,406.108337 C2649.92127,380.138302 2618.45749,367.153285 2581.99945,367.153285 Z" id="ZIPPO" fill="#000000" fill-rule="nonzero"></path>
        <g id="Rectangle-Copy" transform="translate(200.000000, 123.000000)">
            <mask id="mask-2" fill="white">
                <use xlink:href="#path-1"></use>
            </mask>
            <use id="Mask" fill="#FFFFFF" xlink:href="#path-1"></use>
            <rect id="Rectangle" fill="url(#linearGradient-3)" mask="url(#mask-2)" x="-225" y="-124" width="1000" height="1000" rx="100"></rect>
        </g>
    </g>
</svg>