<?xml version="1.0" encoding="UTF-8"?>
<svg width="3032px" height="1000px" viewBox="0 0 3032 1000" version="1.1" xmlns="http://www.w3.org/2000/svg" xmlns:xlink="http://www.w3.org/1999/xlink">
    <!-- Generator: Sketch 53.2 (72643) - https://sketchapp.com -->
    <title>Artboard Copy 2</title>
    <desc>Created with Sketch.</desc>
    <g id="Artboard-Copy-2" stroke="none" stroke-width="1" fill="none" fill-rule="evenodd">
        <path d="M544.266613,124.755105 C552.111996,123.857789 568.879577,123.721692 568.879577,124.555189 C568.879577,124.935799 564.76229,133.858988 559.726631,144.393042 C542.853675,179.685966 534.130687,204.504043 530.781785,226.743199 C528.767368,240.122216 527.717471,266.143635 528.693529,278.490776 C529.629591,290.331975 530.984842,298.40552 532.037046,298.40552 C532.41624,298.40552 537.421132,295.292207 543.11288,291.515326 C560.649618,279.877888 574.179826,273.270653 587.18547,269.991256 C593.492542,268.400383 604.394547,267.552276 605.414446,268.57185 C605.710571,268.868649 604.904497,273.877322 603.620008,279.721031 C594.424758,321.549682 592.710311,355.590053 598.438979,382.601059 C601.912483,398.978821 609.374057,417.742508 616.93716,429.120055 C619.160787,432.465578 627.64303,441.502566 640.487921,454.212632 C667.25452,480.697703 684.898938,498.647116 693.218889,507.856339 C710.168761,526.617719 724.949615,547.363654 733.044204,563.756025 C745.118401,588.207332 751.709292,619.43119 749.615652,642.261637 C743.530096,708.618486 708.485081,773.802749 656.409432,815.627555 C615.035039,848.857497 568.571915,868.094063 511.57752,875.590926 C496.144422,877.620846 460.197957,877.423236 444.045699,875.219543 C390.820163,867.957197 346.207627,848.921316 308.366733,817.325306 C244.482245,763.98378 206.149092,679.092379 200.428116,578.288406 C196.758476,513.630077 216.799583,437.654945 255.93958,367.838005 C273.440936,336.620299 298.577695,300.614596 319.443336,276.876067 C334.850282,259.348017 365.130382,228.803106 382.744034,213.022017 C434.277429,166.849799 502.586865,129.520804 544.266613,124.755105 Z M471.384167,372.274856 C470.523732,374.33002 444.522899,417.901415 413.604538,469.100531 C382.686177,520.298588 357.132007,562.859871 356.815842,563.681513 C356.405252,564.74986 373.202297,575.178153 415.713717,600.246714 L475.187692,635.316864 L534.644691,600.227655 C577.359814,575.018271 593.939363,564.71386 593.52453,563.633867 C591.376095,558.045428 475.757425,368.53723 474.495949,368.53723 C473.645063,368.53723 472.244601,370.218632 471.384167,372.274856 Z M356.956949,588.903603 C359.248613,592.813815 474.696469,754.920878 475.179204,754.906054 C475.977042,754.881701 594.010447,588.4229 593.554236,587.966549 C593.123489,587.537728 482.795802,652.386059 478.193378,655.773216 L475.372298,657.850616 L418.249401,624.192928 C386.83133,605.681623 359.965818,589.788774 358.548382,588.877132 C356.198366,587.3662 356.057259,587.368317 356.956949,588.903603 Z" id="Mask" fill="#FFFFFF"></path>
        <path d="M1260.72513,367.153285 L1000,367.153285 L1000,300 L1397.08138,300 L1260.72513,367.153285 Z M1136.82934,632.846715 L1400.00109,632.846715 L1400.00109,700 L1000,700 L1136.82934,632.846715 Z M1530.41507,366 L1530.41507,633 L1464.23484,700 L1464.23484,300 L1530.41507,366 Z M1910.02287,339 C1936.01097,365.5 1949.00502,397 1949.00502,433.5 C1949.00502,470 1936.51074,502 1910.02287,528 C1884.03477,554 1852.54918,567 1816.06588,567 L1682.62697,567 L1682.62697,700 L1616.1574,700 L1616.1574,500 L1816.06588,500 C1834.05765,500 1849.55055,493.5 1862.54461,480.5 C1875.53866,467.5 1882.53545,452 1882.53545,433.5 C1882.53545,415.5 1876.03843,399.5 1862.54461,386.5 C1849.55055,373.5 1834.05765,367 1816.06588,367 L1682.62697,367 L1616.1574,300 L1816.06588,300 C1852.54918,300 1884.03477,313 1910.02287,339 Z M2284.71976,339 C2310.70786,365.5 2323.70191,397 2323.70191,433.5 C2323.70191,470 2311.20763,502 2284.71976,528 C2258.73165,554 2227.24607,567 2190.76277,567 L2057.32386,567 L2057.32386,700 L1990.85429,700 L1990.85429,500 L2190.76277,500 C2208.75453,500 2224.24744,493.5 2237.24149,480.5 C2250.23554,467.5 2257.23234,452 2257.23234,433.5 C2257.23234,415.5 2250.73532,399.5 2237.24149,386.5 C2224.24744,373.5 2208.75453,367 2190.76277,367 L2057.32386,367 L1990.85429,300 L2190.76277,300 C2227.24607,300 2258.73165,313 2284.71976,339 Z M2581.74977,300 C2637.18063,300 2683.6227,320 2722.57412,359 C2762.02491,398 2782,445 2782,500 C2782,555.5 2762.02491,602.5 2722.57412,641 C2683.6227,680 2637.18063,700 2581.74977,700 C2526.3189,700 2479.87683,680 2440.92541,641 C2401.97399,602 2381.99891,555.5 2381.99891,500 C2381.99891,445 2401.97399,398 2440.92541,359 C2479.37745,320 2526.3189,300 2581.74977,300 Z M2581.99945,367.153285 C2545.54142,367.153285 2514.07764,379.638878 2487.60811,406.108337 C2461.638,432.078371 2449.15238,463.542067 2449.15238,500 C2449.15238,536.457933 2461.638,568.421053 2487.60811,594.391087 C2513.57821,620.361122 2545.54142,632.846715 2581.99945,632.846715 C2618.45749,632.846715 2649.92127,620.361122 2675.89137,594.391087 C2702.3609,567.921629 2714.84653,536.457933 2714.84653,500 C2714.84653,463.542067 2701.86148,432.078371 2675.89137,406.108337 C2649.92127,380.138302 2618.45749,367.153285 2581.99945,367.153285 Z" id="ZIPPO" fill="#FFFFFF" fill-rule="nonzero"></path>
    </g>
</svg>